<svg width="560" height="105" viewBox="0 0 560 105" fill="none" xmlns="http://www.w3.org/2000/svg">
<path d="M284.3 50.99H224.65L254.47 2L284.3 50.99Z" stroke="black" stroke-width="3" stroke-miterlimit="10" stroke-linecap="round" stroke-linejoin="round"/>
<path d="M269.24 26.45L224.65 50.99" stroke="black" stroke-width="3" stroke-miterlimit="10" stroke-linecap="round" stroke-linejoin="round"/>
<path d="M276.3 39.14L224.65 50.99" stroke="black" stroke-width="3" stroke-miterlimit="10" stroke-linecap="round" stroke-linejoin="round"/>
<path d="M261.32 13.24L224.65 50.99" stroke="black" stroke-width="3" stroke-miterlimit="10" stroke-linecap="round" stroke-linejoin="round"/>
<path d="M301.45 2.99001V50.99" stroke="black" stroke-width="3" stroke-miterlimit="10" stroke-linecap="round" stroke-linejoin="round"/>
<path d="M280.72 2H322.18" stroke="black" stroke-width="3" stroke-miterlimit="10" stroke-linecap="round" stroke-linejoin="round"/>
<path d="M492 2.99001V50.71" stroke="black" stroke-width="3" stroke-miterlimit="10" stroke-linecap="round" stroke-linejoin="round"/>
<path d="M471.26 2H512.73" stroke="black" stroke-width="3" stroke-miterlimit="10" stroke-linecap="round" stroke-linejoin="round"/>
<path d="M426.66 51.27H460.12" stroke="black" stroke-width="3" stroke-miterlimit="10" stroke-linecap="round" stroke-linejoin="round"/>
<path d="M426.66 26H460.12" stroke="black" stroke-width="3" stroke-miterlimit="10" stroke-linecap="round" stroke-linejoin="round"/>
<path d="M426.66 2H460.12" stroke="black" stroke-width="3" stroke-miterlimit="10" stroke-linecap="round" stroke-linejoin="round"/>
<path d="M523.2 51.27H556.66" stroke="black" stroke-width="3" stroke-miterlimit="10" stroke-linecap="round" stroke-linejoin="round"/>
<path d="M523.2 26H556.66" stroke="black" stroke-width="3" stroke-miterlimit="10" stroke-linecap="round" stroke-linejoin="round"/>
<path d="M523.2 2H556.66" stroke="black" stroke-width="3" stroke-miterlimit="10" stroke-linecap="round" stroke-linejoin="round"/>
<path d="M333.5 26H372.89" stroke="black" stroke-width="3" stroke-miterlimit="10" stroke-linecap="round" stroke-linejoin="round"/>
<path d="M333.5 2V51.27" stroke="black" stroke-width="3" stroke-miterlimit="10" stroke-linecap="round" stroke-linejoin="round"/>
<path d="M372.89 2V51.27" stroke="black" stroke-width="3" stroke-miterlimit="10" stroke-linecap="round" stroke-linejoin="round"/>
<path d="M384.34 50.99H416.11" stroke="black" stroke-width="3" stroke-miterlimit="10" stroke-linecap="round" stroke-linejoin="round"/>
<path d="M384.35 2V50.99" stroke="black" stroke-width="3" stroke-miterlimit="10" stroke-linecap="round" stroke-linejoin="round"/>
<path d="M105.5 2V51.27L66.54 2V51.27" stroke="black" stroke-width="3" stroke-miterlimit="10" stroke-linecap="round" stroke-linejoin="round"/>
<path d="M53.66 2V51.27L14.69 2V51.27" stroke="black" stroke-width="3" stroke-miterlimit="10" stroke-linecap="round" stroke-linejoin="round"/>
<path d="M1.81 2V51.27" stroke="black" stroke-width="3" stroke-miterlimit="10" stroke-linecap="round" stroke-linejoin="round"/>
<path d="M117.77 51.27H151.23" stroke="black" stroke-width="3" stroke-miterlimit="10" stroke-linecap="round" stroke-linejoin="round"/>
<path d="M117.77 26H151.23" stroke="black" stroke-width="3" stroke-miterlimit="10" stroke-linecap="round" stroke-linejoin="round"/>
<path d="M117.77 2H151.23" stroke="black" stroke-width="3" stroke-miterlimit="10" stroke-linecap="round" stroke-linejoin="round"/>
<path d="M163.5 51.27V34.05H187.36L200.09 51.27" stroke="black" stroke-width="3" stroke-miterlimit="10" stroke-linecap="round" stroke-linejoin="round"/>
<path d="M163.5 2C163.5 2 176.63 2 187.64 2C206.7 2.99 201.76 34.05 187.36 34.05" stroke="black" stroke-width="3" stroke-miterlimit="10" stroke-linecap="round" stroke-linejoin="round"/>
<path d="M14.25 86.08V97.81C14.25 100.11 13.63 101.85 12.39 103.05C11.15 104.24 9.4 104.84 7.14 104.84C4.88 104.84 3.13 104.24 1.88 103.05C0.629997 101.86 0 100.11 0 97.81V86.08H1.39999V97.53C1.39999 99.51 1.89 101.01 2.87 102.02C3.85 103.04 5.27 103.55 7.14 103.55C9.01 103.55 10.43 103.04 11.4 102.02C12.37 101 12.86 99.51 12.86 97.53V86.08H14.25Z" fill="black"/>
<path d="M44.72 86.08V104.56H42.98L33.18 90.06L31.81 87.68H31.78L31.86 89.92V104.56H30.52V86.08H32.28L42.05 100.56L43.45 102.97L43.39 100.73V86.09H44.72V86.08Z" fill="black"/>
<path d="M62.8 103.27H73.89V104.56H61.4V86.08H62.8V103.27Z" fill="black"/>
<path d="M94.53 85.8C96.28 85.8 97.8 86.19 99.07 86.96C100.34 87.73 101.32 88.83 102.01 90.25C102.7 91.67 103.05 93.36 103.05 95.32C103.05 97.28 102.7 98.97 102.01 100.39C101.32 101.81 100.34 102.91 99.07 103.68C97.8 104.45 96.29 104.84 94.53 104.84C92.79 104.84 91.29 104.45 90.01 103.68C88.73 102.91 87.75 101.81 87.06 100.39C86.37 98.97 86.02 97.28 86.02 95.32C86.02 93.36 86.37 91.67 87.06 90.25C87.75 88.83 88.74 87.73 90.01 86.96C91.28 86.18 92.79 85.8 94.53 85.8ZM94.53 87.08C93.09 87.08 91.85 87.41 90.79 88.07C89.74 88.73 88.92 89.68 88.34 90.91C87.76 92.14 87.47 93.61 87.47 95.31C87.47 97.01 87.76 98.47 88.34 99.71C88.92 100.94 89.74 101.89 90.79 102.55C91.84 103.21 93.09 103.54 94.53 103.54C95.99 103.54 97.24 103.21 98.28 102.55C99.33 101.89 100.14 100.94 100.72 99.71C101.3 98.48 101.59 97.01 101.59 95.31C101.59 93.61 101.3 92.15 100.72 90.91C100.14 89.68 99.33 88.73 98.28 88.07C97.23 87.42 95.98 87.08 94.53 87.08Z" fill="black"/>
<path d="M133.17 99.88C132.82 100.91 132.29 101.79 131.59 102.54C130.89 103.29 130.05 103.86 129.07 104.25C128.09 104.64 126.99 104.84 125.78 104.84C124.1 104.84 122.63 104.45 121.37 103.68C120.11 102.91 119.13 101.81 118.43 100.39C117.73 98.97 117.38 97.28 117.38 95.32C117.38 93.36 117.73 91.67 118.42 90.25C119.11 88.83 120.09 87.73 121.35 86.96C122.61 86.19 124.08 85.8 125.76 85.8C127.01 85.8 128.11 85.97 129.05 86.32C129.99 86.67 130.79 87.18 131.44 87.86C132.09 88.54 132.59 89.38 132.92 90.37L131.55 91.01C131.12 89.72 130.44 88.75 129.51 88.08C128.58 87.42 127.35 87.09 125.84 87.09C124.46 87.09 123.24 87.42 122.19 88.08C121.14 88.74 120.31 89.69 119.73 90.91C119.14 92.13 118.85 93.6 118.85 95.32C118.85 97.02 119.14 98.48 119.72 99.72C120.3 100.95 121.11 101.9 122.16 102.56C123.2 103.22 124.42 103.55 125.8 103.55C127.29 103.55 128.56 103.19 129.61 102.47C130.66 101.75 131.38 100.71 131.79 99.35L133.17 99.88Z" fill="black"/>
<path d="M149.55 86.08V104.56H148.15V86.08H149.55ZM161.53 86.08L153.8 94L153.58 94.22L148.82 99.06V97.16L159.68 86.07H161.53V86.08ZM153.92 93.08L161.73 104.56H160.02L152.8 93.92L153.92 93.08Z" fill="black"/>
<path d="M206.28 86.08L199.73 97.36V104.56H198.33V97.36L191.78 86.08H193.43L197.04 92.41L199.03 95.91L201.02 92.41L204.63 86.08H206.28Z" fill="black"/>
<path d="M227.08 85.8C228.83 85.8 230.35 86.19 231.62 86.96C232.89 87.73 233.87 88.83 234.56 90.25C235.25 91.67 235.6 93.36 235.6 95.32C235.6 97.28 235.25 98.97 234.56 100.39C233.87 101.81 232.89 102.91 231.62 103.68C230.35 104.45 228.84 104.84 227.08 104.84C225.34 104.84 223.84 104.45 222.56 103.68C221.28 102.91 220.3 101.81 219.61 100.39C218.92 98.97 218.57 97.28 218.57 95.32C218.57 93.36 218.92 91.67 219.61 90.25C220.3 88.83 221.29 87.73 222.56 86.96C223.84 86.18 225.34 85.8 227.08 85.8ZM227.08 87.08C225.64 87.08 224.4 87.41 223.34 88.07C222.29 88.73 221.47 89.68 220.89 90.91C220.31 92.14 220.02 93.61 220.02 95.31C220.02 97.01 220.31 98.47 220.89 99.71C221.47 100.94 222.29 101.89 223.34 102.55C224.39 103.21 225.64 103.54 227.08 103.54C228.54 103.54 229.79 103.21 230.83 102.55C231.88 101.89 232.69 100.94 233.27 99.71C233.85 98.48 234.14 97.01 234.14 95.31C234.14 93.61 233.85 92.15 233.27 90.91C232.69 89.68 231.88 88.73 230.83 88.07C229.79 87.42 228.54 87.08 227.08 87.08Z" fill="black"/>
<path d="M264.94 86.08V97.81C264.94 100.11 264.32 101.85 263.08 103.05C261.84 104.24 260.09 104.84 257.83 104.84C255.57 104.84 253.82 104.24 252.57 103.05C251.32 101.86 250.69 100.11 250.69 97.81V86.08H252.09V97.53C252.09 99.51 252.58 101.01 253.56 102.02C254.54 103.04 255.96 103.55 257.83 103.55C259.7 103.55 261.12 103.04 262.09 102.02C263.06 101 263.55 99.51 263.55 97.53V86.08H264.94Z" fill="black"/>
<path d="M288.06 86.08C289.91 86.08 291.38 86.55 292.47 87.48C293.56 88.41 294.11 89.69 294.11 91.32C294.11 92.95 293.56 94.21 292.46 95.11C291.36 96.02 289.88 96.47 288.04 96.47L287.9 96.55H282.61V104.56H281.21V86.08H288.06ZM288.04 95.23C289.53 95.23 290.68 94.89 291.47 94.22C292.26 93.55 292.66 92.58 292.66 91.31C292.66 90.04 292.26 89.07 291.47 88.38C290.68 87.69 289.53 87.36 288.04 87.36H282.61V95.23H288.04ZM289.13 95.48L295.09 104.55H293.44L287.95 96.26L289.13 95.48Z" fill="black"/>
<path d="M335.75 86.08C337.04 86.08 338.15 86.3 339.08 86.74C340.01 87.18 340.74 87.8 341.25 88.6C341.76 89.4 342.02 90.36 342.02 91.48C342.02 92.62 341.76 93.59 341.25 94.39C340.74 95.19 340.01 95.81 339.08 96.25C338.15 96.69 337.04 96.91 335.75 96.91H331.02V104.55H329.62V86.07H335.75V86.08ZM335.58 95.6C337.2 95.6 338.44 95.24 339.28 94.52C340.12 93.8 340.54 92.79 340.54 91.48C340.54 90.17 340.12 89.16 339.28 88.44C338.44 87.72 337.21 87.36 335.58 87.36H331.02V95.59H335.58V95.6Z" fill="black"/>
<path d="M364.25 85.8C366 85.8 367.52 86.19 368.79 86.96C370.06 87.73 371.04 88.83 371.73 90.25C372.42 91.67 372.77 93.36 372.77 95.32C372.77 97.28 372.42 98.97 371.73 100.39C371.04 101.81 370.06 102.91 368.79 103.68C367.52 104.45 366.01 104.84 364.25 104.84C362.51 104.84 361.01 104.45 359.73 103.68C358.45 102.91 357.47 101.81 356.78 100.39C356.09 98.97 355.74 97.28 355.74 95.32C355.74 93.36 356.08 91.67 356.78 90.25C357.47 88.83 358.45 87.73 359.73 86.96C361.01 86.18 362.51 85.8 364.25 85.8ZM364.25 87.08C362.81 87.08 361.57 87.41 360.51 88.07C359.46 88.73 358.64 89.68 358.06 90.91C357.48 92.14 357.19 93.61 357.19 95.31C357.19 97.01 357.48 98.47 358.06 99.71C358.64 100.94 359.46 101.89 360.51 102.55C361.56 103.21 362.81 103.54 364.25 103.54C365.71 103.54 366.96 103.21 368 102.55C369.04 101.89 369.86 100.94 370.44 99.71C371.02 98.48 371.31 97.01 371.31 95.31C371.31 93.61 371.02 92.15 370.44 90.91C369.86 89.68 369.05 88.73 368 88.07C366.96 87.42 365.71 87.08 364.25 87.08Z" fill="black"/>
<path d="M399.89 86.08V87.37H393.14V104.56H391.74V87.37H384.99V86.08H399.89Z" fill="black"/>
<path d="M414.29 104.56V86.08H426.92V87.37H415.69V94.51H424.57V95.83H415.69V103.28H427.37V104.57H414.29V104.56Z" fill="black"/>
<path d="M456.48 86.08V104.56H454.74L444.94 90.06L443.57 87.68H443.54L443.62 89.92V104.56H442.28V86.08H444.04L453.81 100.56L455.21 102.97L455.15 100.73V86.09H456.48V86.08Z" fill="black"/>
<path d="M485.77 86.08V87.37H479.02V104.56H477.62V87.37H470.87V86.08H485.77Z" fill="black"/>
<path d="M501.56 86.08V104.56H500.16V86.08H501.56Z" fill="black"/>
<path d="M532.3 104.56H530.82L528.5 98.76H519.68L517.36 104.56H515.88L523.27 86.08H524.92L532.3 104.56ZM520.18 97.47H527.99L524.07 87.45L520.18 97.47Z" fill="black"/>
<path d="M548.01 103.27H559.1V104.56H546.61V86.08H548.01V103.27Z" fill="black"/>
</svg>
